<svg xmlns="http://www.w3.org/2000/svg" xmlns:xlink="http://www.w3.org/1999/xlink" width="22.72705078125" height="18.93994140625" viewBox="0 0 22.72705078125 18.93994140625" fill="none">
<path d="M21.6091 0.0980472L0.859026 8.09807C-0.310428 8.54934 -0.280774 9.21208 0.919027 9.56808L5.92904 11.0581L7.96905 17.1181C8.23596 17.9123 8.93263 18.0789 9.52906 17.4881L12.1591 14.8881L17.3491 18.6881C18.0236 19.1824 18.717 18.9285 18.8991 18.1081L22.6891 1.02805C22.8706 0.209965 22.3887 -0.202756 21.6091 0.0980472ZM18.4491 3.95806L9.59906 11.8381C9.43991 11.9799 9.30117 12.26 9.27906 12.4681L8.88905 16.1481C8.84518 16.5606 8.70025 16.5735 8.56905 16.1781L6.84905 11.0181C6.78204 10.8161 6.88015 10.5654 7.05905 10.4581L18.2791 3.72806C18.9944 3.29901 19.072 3.40307 18.4491 3.95806Z"   fill="#FFFFFF" >
</path>
</svg>
